# xmcd
#
# Track frame offsets:
#	150
#	13762
#	27774
#	41844
#	57848
#	68872
#	85387
#	99679
#	112380
#	128796
#	143141
#	160848
#	178631
#	194043
#	208674
#	222631
#	234662
#	246816
#	261153
#	275231
#
# Disc length: 3870 seconds
#
# Revision: 0
# Processed by: cddbd v1.5.1PL0 Copyright (c) Steve Scherf et al.
# Submitted via: dBpowerAMP V4.0
#
DISCID=3f0f1c14
DTITLE=Randy Travis - The Very Best of Randy Travis
DYEAR=2004
DGENRE=Country
TTITLE0=Diggin' Up Bones
TTITLE1=On The Other Hand
TTITLE2=Forever And Ever, Amen
TTITLE3=Too Gone Too Long
TTITLE4=I Told You So (Single Remix)
TTITLE5=I Won't Need You Anymore (Always and Forever)
TTITLE6=Honky Tonk Moon
TTITLE7=Deeper Than The Holler
TTITLE8=Is It Still Over
TTITLE9=It's Just A Matter Of Time
TTITLE10=Hard Rock Bottom Of Your Heart
TTITLE11=He Walked On Water
TTITLE12=Heroes And Friends (long Single Edit)
TTITLE13=Forever Together
TTITLE14=Better Glass Of Losers
TTITLE15=I'm Gonna Have A Little Talk
TTITLE16=If I Didn't Have You
TTITLE17=Look Heart, No Hands
TTITLE18=Whisper My Name
TTITLE19=Three Wooden Crosses
EXTD=
EXTT0=
EXTT1=
EXTT2=
EXTT3=
EXTT4=
EXTT5=
EXTT6=
EXTT7=
EXTT8=
EXTT9=
EXTT10=
EXTT11=
EXTT12=
EXTT13=
EXTT14=
EXTT15=
EXTT16=
EXTT17=
EXTT18=
EXTT19=
PLAYORDER=
